<svg version="1.1" class="logo--sm" xmlns="https://www.w3.org/2000/svg" xmlns:xlink="https://www.w3.org/1999/xlink" x="0px" y="0px" width="15.388px" height="18.171px" viewBox="32.624 0.504 15.388 18.171" enable-background="new 32.624 0.504 15.388 18.171" xml:space="preserve" aria-labelledby="g-logo--sm-title g-logo--sm-desc">
	<title id="g-logo--sm-title">Boston Globe</title>
	<desc id="g-logo--sm-desc">Logo</desc>
	<a xlink:href="https://www.bostonglobe.com"></a>
	<g>
		<path d="M45.227,10.354l-0.062,4.502c-0.468,0.252-0.781,0.408-1.219,0.72c-0.343-0.218-0.688-0.438-1.095-0.687V9.072
		L45.227,10.354z M45.572,6.445c0,0.687-0.625,1.032-2.722,2.345V6.788c0-1,0.063-1.563,0.094-1.97h-0.437
		c0.062,0.438,0.094,0.97,0.094,1.97v7.979c-1.313-0.783-2.909-1.598-4.599-1.723c1.596-0.906,3.19-2.126,3.19-3.91V5.225
		c0-1.25,0.5-2.003,1.815-3.127c1.031,1.532,1.439,2.188,2.251,3.566C45.446,5.975,45.572,6.289,45.572,6.445 M41.475,1.565
		l-0.062-0.188c-1.314,0-2.033-0.157-2.722-0.281c-0.657-0.094-1.22-0.22-2.001-0.22c-2.064,0-3.409,1.064-3.409,2.785
		c0,0.719,0.156,1.125,0.625,1.657l0.188-0.187c-0.25-0.313-0.375-0.626-0.375-0.971c0-0.75,0.625-1.407,2.001-1.407
		c1.032,0,1.97,0.188,2.784,0.375c-1.751,1.281-2.816,2.22-2.816,4.941c-0.25-0.094-0.594-0.156-1.063-0.156
		c-1.313,0-2.001,0.875-2.001,1.719c0,0.377,0.093,0.783,0.344,1.064l0.219-0.125c-0.094-0.188-0.157-0.377-0.157-0.562
		c0-0.563,0.438-1.002,1.251-1.002c0.72,0,1.251,0.312,1.501,0.752c0,1.906-0.375,2.877-1.375,2.877v0.219
		c1.501,0,3.314-1.095,3.314-2.846V6.507C37.721,3.629,39.41,2.286,41.475,1.565 M48.012,9.479l-2.785-1.845
		c1.064-0.657,1.408-0.845,1.783-1.126c0.658-0.47,0.845-0.751,0.845-1.032c0-0.219-0.094-0.625-0.594-1.376
		c-0.625-0.938-1.22-1.846-2.471-3.596c-1.751,1.188-2.721,1.906-4.566,3.346c-0.75,0.594-1.314,1.532-1.314,2.721
		c0,0.407,0.032,2.502,0.032,3.879c0,1.062-0.188,1.627-1.314,2.564c-2.721,0-4.348,1.752-4.348,3.502
		c0,0.752,0.25,1.533,0.813,2.158l0.188-0.188c-0.345-0.377-0.625-0.971-0.625-1.657c0-0.938,0.688-1.972,2.846-1.972
		c2.377,0,4.597,1.627,5.88,2.408c1.845-1.562,3.003-2.221,5.38-3.004v-3.972C47.761,10.011,47.855,9.729,48.012,9.479" />
	</g>
</svg>
